<mxfile host="app.diagrams.net" modified="2021-08-11T08:22:34.430Z" agent="5.0 (X11)" etag="drPdjeq6cOX3u7UW1BKM" version="14.9.6" type="github" pages="4">
  <diagram id="Pvpobmbzh2nM3Fv29kAB" name="lifecycle">
    <mxGraphModel dx="2474" dy="914" grid="1" gridSize="10" guides="1" tooltips="1" connect="1" arrows="1" fold="1" page="1" pageScale="1" pageWidth="850" pageHeight="1100" math="0" shadow="0">
      <root>
        <mxCell id="0" />
        <mxCell id="1" parent="0" />
        <mxCell id="1_IHkE5HmCKYq4mj_cBk-1" value="" style="endArrow=none;html=1;" parent="1" edge="1">
          <mxGeometry width="50" height="50" relative="1" as="geometry">
            <mxPoint x="-400" y="520" as="sourcePoint" />
            <mxPoint x="480" y="520" as="targetPoint" />
          </mxGeometry>
        </mxCell>
        <mxCell id="1_IHkE5HmCKYq4mj_cBk-2" value="&lt;font data-font-src=&quot;https://fonts.googleapis.com/css?family=Reenie+Beanie&quot; style=&quot;font-size: 48px&quot; face=&quot;Helvetica&quot;&gt;what the hell is going on?&lt;/font&gt;" style="text;html=1;strokeColor=none;fillColor=none;align=center;verticalAlign=middle;whiteSpace=wrap;rounded=0;" parent="1" vertex="1">
          <mxGeometry x="-400" y="320" width="240" height="20" as="geometry" />
        </mxCell>
        <UserObject label="exploration" link="data:page/id,smIHWLjaHn_RYlz03nwy" id="1_IHkE5HmCKYq4mj_cBk-3">
          <mxCell style="ellipse;whiteSpace=wrap;html=1;aspect=fixed;" parent="1" vertex="1">
            <mxGeometry x="-400" y="460" width="120" height="120" as="geometry" />
          </mxCell>
        </UserObject>
        <mxCell id="Lmy2bgcgnNoxKCtMxb7l-1" value="&lt;a href=&quot;data:page/id,Qf79vvp_5yIbWEqe6FPg&quot;&gt;appraisal&lt;/a&gt;" style="ellipse;whiteSpace=wrap;html=1;aspect=fixed;" parent="1" vertex="1">
          <mxGeometry x="-200" y="460" width="120" height="120" as="geometry" />
        </mxCell>
        <mxCell id="Lmy2bgcgnNoxKCtMxb7l-2" value="&lt;div&gt;development&lt;/div&gt;" style="ellipse;whiteSpace=wrap;html=1;aspect=fixed;" parent="1" vertex="1">
          <mxGeometry y="460" width="120" height="120" as="geometry" />
        </mxCell>
        <mxCell id="Lmy2bgcgnNoxKCtMxb7l-3" value="production" style="ellipse;whiteSpace=wrap;html=1;aspect=fixed;" parent="1" vertex="1">
          <mxGeometry x="200" y="460" width="120" height="120" as="geometry" />
        </mxCell>
        <mxCell id="Lmy2bgcgnNoxKCtMxb7l-4" value="abandonment" style="ellipse;whiteSpace=wrap;html=1;aspect=fixed;" parent="1" vertex="1">
          <mxGeometry x="400" y="460" width="120" height="120" as="geometry" />
        </mxCell>
      </root>
    </mxGraphModel>
  </diagram>
  <diagram id="smIHWLjaHn_RYlz03nwy" name="exploration">
    <mxGraphModel dx="955" dy="538" grid="1" gridSize="10" guides="1" tooltips="1" connect="1" arrows="1" fold="1" page="1" pageScale="1" pageWidth="827" pageHeight="1169" math="0" shadow="0">
      <root>
        <mxCell id="zuzRcQpiHl5QbEve7gPu-0" />
        <mxCell id="zuzRcQpiHl5QbEve7gPu-1" parent="zuzRcQpiHl5QbEve7gPu-0" />
        <mxCell id="Pq3hefjz2cM60JK0ZfX_-0" value="&lt;font style=&quot;font-size: 48px&quot;&gt;let&#39;s explore the &quot;hell thing&quot;!&lt;br&gt;&lt;/font&gt;" style="text;html=1;strokeColor=none;fillColor=none;align=center;verticalAlign=middle;whiteSpace=wrap;rounded=0;" parent="zuzRcQpiHl5QbEve7gPu-1" vertex="1">
          <mxGeometry x="20" y="50" width="300" height="120" as="geometry" />
        </mxCell>
        <mxCell id="Pq3hefjz2cM60JK0ZfX_-15" style="edgeStyle=orthogonalEdgeStyle;rounded=0;orthogonalLoop=1;jettySize=auto;html=1;dashed=1;fillColor=#dae8fc;strokeColor=#6c8ebf;" parent="zuzRcQpiHl5QbEve7gPu-1" source="Pq3hefjz2cM60JK0ZfX_-2" edge="1">
          <mxGeometry relative="1" as="geometry">
            <mxPoint x="810" y="390" as="targetPoint" />
          </mxGeometry>
        </mxCell>
        <mxCell id="Pq3hefjz2cM60JK0ZfX_-2" value="exploration" style="ellipse;whiteSpace=wrap;html=1;aspect=fixed;fillColor=#f8cecc;strokeColor=#b85450;" parent="zuzRcQpiHl5QbEve7gPu-1" vertex="1">
          <mxGeometry x="110" y="320" width="140" height="140" as="geometry" />
        </mxCell>
        <mxCell id="Pq3hefjz2cM60JK0ZfX_-3" value="" style="curved=1;endArrow=classic;html=1;exitX=1;exitY=0.5;exitDx=0;exitDy=0;fillColor=#f8cecc;strokeColor=#b85450;" parent="zuzRcQpiHl5QbEve7gPu-1" source="Pq3hefjz2cM60JK0ZfX_-2" edge="1">
          <mxGeometry width="50" height="50" relative="1" as="geometry">
            <mxPoint x="210" y="420" as="sourcePoint" />
            <mxPoint x="380" y="290" as="targetPoint" />
            <Array as="points">
              <mxPoint x="270" y="330" />
              <mxPoint x="300" y="300" />
              <mxPoint x="340" y="290" />
            </Array>
          </mxGeometry>
        </mxCell>
        <mxCell id="Pq3hefjz2cM60JK0ZfX_-9" style="edgeStyle=orthogonalEdgeStyle;rounded=0;orthogonalLoop=1;jettySize=auto;html=1;exitX=0.5;exitY=0;exitDx=0;exitDy=0;fillColor=#f8cecc;strokeColor=#b85450;" parent="zuzRcQpiHl5QbEve7gPu-1" source="Pq3hefjz2cM60JK0ZfX_-5" edge="1">
          <mxGeometry relative="1" as="geometry">
            <mxPoint x="459.7058823529412" y="160" as="targetPoint" />
          </mxGeometry>
        </mxCell>
        <mxCell id="Pq3hefjz2cM60JK0ZfX_-5" value="discovers all &lt;strike&gt;shit things&lt;/strike&gt; i mean hydrocarbon sources using &lt;strike&gt;damn&lt;/strike&gt; seismic tools (or anything else). " style="ellipse;whiteSpace=wrap;html=1;aspect=fixed;fillColor=#f8cecc;strokeColor=#b85450;" parent="zuzRcQpiHl5QbEve7gPu-1" vertex="1">
          <mxGeometry x="380" y="200" width="160" height="160" as="geometry" />
        </mxCell>
        <mxCell id="Pq3hefjz2cM60JK0ZfX_-6" value="" style="curved=1;endArrow=classic;html=1;exitX=0.5;exitY=1;exitDx=0;exitDy=0;fillColor=#d5e8d4;strokeColor=#82b366;" parent="zuzRcQpiHl5QbEve7gPu-1" source="Pq3hefjz2cM60JK0ZfX_-2" edge="1">
          <mxGeometry width="50" height="50" relative="1" as="geometry">
            <mxPoint x="360" y="390" as="sourcePoint" />
            <mxPoint x="340" y="470" as="targetPoint" />
            <Array as="points">
              <mxPoint x="240" y="500" />
              <mxPoint x="290" y="410" />
            </Array>
          </mxGeometry>
        </mxCell>
        <mxCell id="Pq3hefjz2cM60JK0ZfX_-7" value="&lt;b&gt;some resource(s)&lt;/b&gt;:&lt;br&gt;&lt;a href=&quot;http://www.reportingoilandgas.org/the-exploration-and-production-life-cycle-of-oil-and-gas/&quot;&gt;http://www.reportingoilandgas.org/the-exploration-and-production-life-cycle-of-oil-and-gas/&lt;/a&gt;" style="text;html=1;strokeColor=none;fillColor=none;align=center;verticalAlign=middle;whiteSpace=wrap;rounded=0;" parent="zuzRcQpiHl5QbEve7gPu-1" vertex="1">
          <mxGeometry x="530" y="20" width="280" height="60" as="geometry" />
        </mxCell>
        <mxCell id="Pq3hefjz2cM60JK0ZfX_-10" value="&lt;ul&gt;&lt;li&gt;drilling&lt;/li&gt;&lt;li&gt;seismic&lt;/li&gt;&lt;/ul&gt;" style="text;html=1;strokeColor=#b85450;fillColor=#f8cecc;align=center;verticalAlign=middle;whiteSpace=wrap;rounded=0;" parent="zuzRcQpiHl5QbEve7gPu-1" vertex="1">
          <mxGeometry x="405" y="130" width="70" height="20" as="geometry" />
        </mxCell>
        <mxCell id="Pq3hefjz2cM60JK0ZfX_-11" value="collect tons of damn cores and fluid information to get:" style="ellipse;whiteSpace=wrap;html=1;aspect=fixed;fillColor=#d5e8d4;strokeColor=#82b366;" parent="zuzRcQpiHl5QbEve7gPu-1" vertex="1">
          <mxGeometry x="320" y="450" width="130" height="130" as="geometry" />
        </mxCell>
        <mxCell id="Pq3hefjz2cM60JK0ZfX_-12" value="" style="endArrow=classic;html=1;exitX=0.5;exitY=1;exitDx=0;exitDy=0;" parent="zuzRcQpiHl5QbEve7gPu-1" source="Pq3hefjz2cM60JK0ZfX_-11" edge="1">
          <mxGeometry width="50" height="50" relative="1" as="geometry">
            <mxPoint x="200" y="480" as="sourcePoint" />
            <mxPoint x="385" y="620" as="targetPoint" />
          </mxGeometry>
        </mxCell>
        <mxCell id="Pq3hefjz2cM60JK0ZfX_-13" value="&lt;ul&gt;&lt;li&gt;is hydrocarbon exists&lt;/li&gt;&lt;li&gt;how many&lt;/li&gt;&lt;li&gt;geography terrain&lt;/li&gt;&lt;li&gt;safety induction&lt;/li&gt;&lt;li&gt;depth area&lt;br&gt;&lt;/li&gt;&lt;/ul&gt;" style="text;whiteSpace=wrap;html=1;fillColor=#d5e8d4;strokeColor=#82b366;" parent="zuzRcQpiHl5QbEve7gPu-1" vertex="1">
          <mxGeometry x="340" y="610" width="180" height="100" as="geometry" />
        </mxCell>
        <mxCell id="Pq3hefjz2cM60JK0ZfX_-23" value="&lt;div&gt;if exploration success&lt;/div&gt;" style="rounded=0;whiteSpace=wrap;html=1;" parent="zuzRcQpiHl5QbEve7gPu-1" vertex="1">
          <mxGeometry x="540" y="365" width="110" height="50" as="geometry" />
        </mxCell>
        <mxCell id="Pq3hefjz2cM60JK0ZfX_-25" value="&lt;div&gt;appraisal&lt;/div&gt;&lt;div&gt;process&lt;br&gt;&lt;/div&gt;" style="text;html=1;strokeColor=none;fillColor=none;align=center;verticalAlign=middle;whiteSpace=wrap;rounded=0;portConstraintRotation=0;rotation=45;" parent="zuzRcQpiHl5QbEve7gPu-1" vertex="1">
          <mxGeometry x="740" y="380" width="40" height="20" as="geometry" />
        </mxCell>
        <mxCell id="Pq3hefjz2cM60JK0ZfX_-32" value="&lt;div align=&quot;left&quot;&gt;&lt;font style=&quot;font-size: 36px&quot;&gt;topics related&lt;/font&gt;&lt;/div&gt;&lt;div style=&quot;font-size: 20px&quot; align=&quot;left&quot;&gt;&lt;ul&gt;&lt;li&gt;petrophysics&lt;/li&gt;&lt;li&gt;well-log analysis&lt;/li&gt;&lt;li&gt;geophysics and geosciences&lt;br&gt;&lt;/li&gt;&lt;/ul&gt;&lt;/div&gt;" style="text;html=1;strokeColor=none;fillColor=none;align=left;verticalAlign=middle;whiteSpace=wrap;rounded=0;" parent="zuzRcQpiHl5QbEve7gPu-1" vertex="1">
          <mxGeometry x="10" y="1026" width="240" height="130" as="geometry" />
        </mxCell>
        <mxCell id="nFTvtgkI1hbA1KfN2xV2-0" value="me start here" style="shape=umlActor;verticalLabelPosition=bottom;verticalAlign=top;html=1;outlineConnect=0;" vertex="1" parent="zuzRcQpiHl5QbEve7gPu-1">
          <mxGeometry x="165" y="260" width="30" height="60" as="geometry" />
        </mxCell>
      </root>
    </mxGraphModel>
  </diagram>
  <diagram name="appraisal" id="Qf79vvp_5yIbWEqe6FPg">
    <mxGraphModel dx="1353" dy="762" grid="1" gridSize="10" guides="1" tooltips="1" connect="1" arrows="1" fold="1" page="1" pageScale="1" pageWidth="827" pageHeight="1169" math="0" shadow="0">
      <root>
        <mxCell id="KQlcqz2PAuTx5XSDL1JW-0" />
        <mxCell id="KQlcqz2PAuTx5XSDL1JW-1" parent="KQlcqz2PAuTx5XSDL1JW-0" />
        <mxCell id="KQlcqz2PAuTx5XSDL1JW-2" value="&lt;font style=&quot;font-size: 48px&quot;&gt;have more data for make consider :v&lt;br&gt;&lt;/font&gt;" style="text;html=1;strokeColor=none;fillColor=none;align=center;verticalAlign=middle;whiteSpace=wrap;rounded=0;" vertex="1" parent="KQlcqz2PAuTx5XSDL1JW-1">
          <mxGeometry x="20" y="50" width="300" height="120" as="geometry" />
        </mxCell>
        <mxCell id="KQlcqz2PAuTx5XSDL1JW-3" style="edgeStyle=orthogonalEdgeStyle;rounded=0;orthogonalLoop=1;jettySize=auto;html=1;dashed=1;fillColor=#d5e8d4;strokeColor=#82b366;" edge="1" parent="KQlcqz2PAuTx5XSDL1JW-1" source="KQlcqz2PAuTx5XSDL1JW-4">
          <mxGeometry relative="1" as="geometry">
            <mxPoint x="810" y="390" as="targetPoint" />
          </mxGeometry>
        </mxCell>
        <mxCell id="KQlcqz2PAuTx5XSDL1JW-4" value="appraisal" style="ellipse;whiteSpace=wrap;html=1;aspect=fixed;fillColor=#dae8fc;strokeColor=#6c8ebf;" vertex="1" parent="KQlcqz2PAuTx5XSDL1JW-1">
          <mxGeometry x="110" y="320" width="140" height="140" as="geometry" />
        </mxCell>
        <mxCell id="KQlcqz2PAuTx5XSDL1JW-5" value="" style="curved=1;endArrow=classic;html=1;exitX=1;exitY=0.5;exitDx=0;exitDy=0;fillColor=#dae8fc;strokeColor=#6c8ebf;" edge="1" parent="KQlcqz2PAuTx5XSDL1JW-1" source="KQlcqz2PAuTx5XSDL1JW-4">
          <mxGeometry width="50" height="50" relative="1" as="geometry">
            <mxPoint x="210" y="420" as="sourcePoint" />
            <mxPoint x="380" y="290" as="targetPoint" />
            <Array as="points">
              <mxPoint x="270" y="330" />
              <mxPoint x="300" y="300" />
              <mxPoint x="340" y="290" />
            </Array>
          </mxGeometry>
        </mxCell>
        <mxCell id="KQlcqz2PAuTx5XSDL1JW-6" style="edgeStyle=orthogonalEdgeStyle;rounded=0;orthogonalLoop=1;jettySize=auto;html=1;exitX=0.5;exitY=0;exitDx=0;exitDy=0;fillColor=#f8cecc;strokeColor=#b85450;" edge="1" parent="KQlcqz2PAuTx5XSDL1JW-1" source="KQlcqz2PAuTx5XSDL1JW-7">
          <mxGeometry relative="1" as="geometry">
            <mxPoint x="459.7058823529412" y="160" as="targetPoint" />
          </mxGeometry>
        </mxCell>
        <mxCell id="KQlcqz2PAuTx5XSDL1JW-7" value="reduce uncertainty about the size of the oil or gas field and its properties" style="ellipse;whiteSpace=wrap;html=1;aspect=fixed;fillColor=#dae8fc;strokeColor=#6c8ebf;" vertex="1" parent="KQlcqz2PAuTx5XSDL1JW-1">
          <mxGeometry x="380" y="200" width="160" height="160" as="geometry" />
        </mxCell>
        <mxCell id="KQlcqz2PAuTx5XSDL1JW-8" value="" style="curved=1;endArrow=classic;html=1;exitX=0.5;exitY=1;exitDx=0;exitDy=0;fillColor=#d5e8d4;strokeColor=#82b366;" edge="1" parent="KQlcqz2PAuTx5XSDL1JW-1" source="KQlcqz2PAuTx5XSDL1JW-4">
          <mxGeometry width="50" height="50" relative="1" as="geometry">
            <mxPoint x="360" y="390" as="sourcePoint" />
            <mxPoint x="340" y="470" as="targetPoint" />
            <Array as="points">
              <mxPoint x="240" y="500" />
              <mxPoint x="290" y="410" />
            </Array>
          </mxGeometry>
        </mxCell>
        <mxCell id="KQlcqz2PAuTx5XSDL1JW-9" value="&lt;b&gt;some resource(s)&lt;/b&gt;:&lt;br&gt;&lt;a href=&quot;http://www.reportingoilandgas.org/the-exploration-and-production-life-cycle-of-oil-and-gas/&quot;&gt;http://www.reportingoilandgas.org/the-exploration-and-production-life-cycle-of-oil-and-gas/&lt;/a&gt;" style="text;html=1;strokeColor=none;fillColor=none;align=center;verticalAlign=middle;whiteSpace=wrap;rounded=0;" vertex="1" parent="KQlcqz2PAuTx5XSDL1JW-1">
          <mxGeometry x="530" y="20" width="280" height="60" as="geometry" />
        </mxCell>
        <mxCell id="KQlcqz2PAuTx5XSDL1JW-10" value="&lt;ul&gt;&lt;li&gt;drilling&lt;/li&gt;&lt;li&gt;seismic&lt;/li&gt;&lt;/ul&gt;" style="text;html=1;strokeColor=#6c8ebf;fillColor=#dae8fc;align=center;verticalAlign=middle;whiteSpace=wrap;rounded=0;" vertex="1" parent="KQlcqz2PAuTx5XSDL1JW-1">
          <mxGeometry x="407.5" y="110" width="105" height="50" as="geometry" />
        </mxCell>
        <mxCell id="KQlcqz2PAuTx5XSDL1JW-11" value="collect tons of damn core and fluid information (yeah, still...)" style="ellipse;whiteSpace=wrap;html=1;aspect=fixed;fillColor=#d5e8d4;strokeColor=#82b366;" vertex="1" parent="KQlcqz2PAuTx5XSDL1JW-1">
          <mxGeometry x="320" y="450" width="130" height="130" as="geometry" />
        </mxCell>
        <mxCell id="KQlcqz2PAuTx5XSDL1JW-12" value="" style="endArrow=classic;html=1;exitX=0.5;exitY=1;exitDx=0;exitDy=0;" edge="1" parent="KQlcqz2PAuTx5XSDL1JW-1" source="KQlcqz2PAuTx5XSDL1JW-11">
          <mxGeometry width="50" height="50" relative="1" as="geometry">
            <mxPoint x="200" y="480" as="sourcePoint" />
            <mxPoint x="385" y="620" as="targetPoint" />
          </mxGeometry>
        </mxCell>
        <mxCell id="KQlcqz2PAuTx5XSDL1JW-13" value="&lt;ul&gt;&lt;li&gt;is hydrocarbon exists&lt;/li&gt;&lt;li&gt;how many&lt;/li&gt;&lt;li&gt;geography terrain&lt;/li&gt;&lt;li&gt;safety induction&lt;/li&gt;&lt;li&gt;depth area&lt;br&gt;&lt;/li&gt;&lt;/ul&gt;" style="text;whiteSpace=wrap;html=1;fillColor=#d5e8d4;strokeColor=#82b366;" vertex="1" parent="KQlcqz2PAuTx5XSDL1JW-1">
          <mxGeometry x="340" y="610" width="180" height="100" as="geometry" />
        </mxCell>
        <mxCell id="KQlcqz2PAuTx5XSDL1JW-14" value="appraisal finished and success" style="rounded=0;whiteSpace=wrap;html=1;" vertex="1" parent="KQlcqz2PAuTx5XSDL1JW-1">
          <mxGeometry x="540" y="365" width="110" height="50" as="geometry" />
        </mxCell>
        <mxCell id="KQlcqz2PAuTx5XSDL1JW-15" value="development&lt;div&gt;process&lt;br&gt;&lt;/div&gt;" style="text;html=1;strokeColor=none;fillColor=none;align=center;verticalAlign=middle;whiteSpace=wrap;rounded=0;portConstraintRotation=0;rotation=45;" vertex="1" parent="KQlcqz2PAuTx5XSDL1JW-1">
          <mxGeometry x="740" y="380" width="40" height="20" as="geometry" />
        </mxCell>
        <mxCell id="KQlcqz2PAuTx5XSDL1JW-16" value="&lt;div align=&quot;left&quot;&gt;&lt;font style=&quot;font-size: 36px&quot;&gt;topics related&lt;/font&gt;&lt;/div&gt;&lt;div style=&quot;font-size: 20px&quot; align=&quot;left&quot;&gt;&lt;ul&gt;&lt;li&gt;petrophysics&lt;/li&gt;&lt;li&gt;well-log analysis&lt;/li&gt;&lt;li&gt;reservoir engineering&lt;br&gt;&lt;/li&gt;&lt;/ul&gt;&lt;/div&gt;" style="text;html=1;strokeColor=none;fillColor=none;align=left;verticalAlign=middle;whiteSpace=wrap;rounded=0;" vertex="1" parent="KQlcqz2PAuTx5XSDL1JW-1">
          <mxGeometry x="10" y="1026" width="240" height="130" as="geometry" />
        </mxCell>
        <mxCell id="KQlcqz2PAuTx5XSDL1JW-17" value="" style="endArrow=blockThin;dashed=1;html=1;strokeWidth=1;endFill=1;fillColor=#dae8fc;strokeColor=#6c8ebf;rounded=0;" edge="1" parent="KQlcqz2PAuTx5XSDL1JW-1">
          <mxGeometry width="50" height="50" relative="1" as="geometry">
            <mxPoint x="10" y="390" as="sourcePoint" />
            <mxPoint x="110" y="390" as="targetPoint" />
          </mxGeometry>
        </mxCell>
        <mxCell id="KQlcqz2PAuTx5XSDL1JW-23" value="" style="curved=1;endArrow=classic;html=1;dashed=1;strokeWidth=1;exitX=0;exitY=1;exitDx=0;exitDy=0;fillColor=#ffe6cc;strokeColor=#d79b00;" edge="1" parent="KQlcqz2PAuTx5XSDL1JW-1" source="KQlcqz2PAuTx5XSDL1JW-4">
          <mxGeometry width="50" height="50" relative="1" as="geometry">
            <mxPoint x="300" y="540" as="sourcePoint" />
            <mxPoint x="110" y="580" as="targetPoint" />
            <Array as="points">
              <mxPoint x="70" y="500" />
              <mxPoint x="140" y="510" />
            </Array>
          </mxGeometry>
        </mxCell>
        <mxCell id="KQlcqz2PAuTx5XSDL1JW-27" value="do more &lt;strike&gt;shits of&lt;/strike&gt; seismic surveys" style="ellipse;whiteSpace=wrap;html=1;aspect=fixed;fillColor=#ffe6cc;strokeColor=#d79b00;" vertex="1" parent="KQlcqz2PAuTx5XSDL1JW-1">
          <mxGeometry x="40" y="580" width="130" height="130" as="geometry" />
        </mxCell>
        <mxCell id="KQlcqz2PAuTx5XSDL1JW-28" value="" style="endArrow=classic;html=1;strokeWidth=1;fillColor=#ffe6cc;strokeColor=#d79b00;" edge="1" parent="KQlcqz2PAuTx5XSDL1JW-1">
          <mxGeometry width="50" height="50" relative="1" as="geometry">
            <mxPoint x="110" y="710" as="sourcePoint" />
            <mxPoint x="110" y="750" as="targetPoint" />
          </mxGeometry>
        </mxCell>
        <mxCell id="KQlcqz2PAuTx5XSDL1JW-29" value="- how much, how fast of fluid flow" style="text;html=1;strokeColor=#d79b00;fillColor=#ffe6cc;align=left;verticalAlign=middle;whiteSpace=wrap;rounded=0;" vertex="1" parent="KQlcqz2PAuTx5XSDL1JW-1">
          <mxGeometry x="40" y="760" width="220" height="20" as="geometry" />
        </mxCell>
      </root>
    </mxGraphModel>
  </diagram>
  <diagram name="development" id="Q00Oie9TK2gWPec9SLbd">
    <mxGraphModel dx="1353" dy="762" grid="1" gridSize="10" guides="1" tooltips="1" connect="1" arrows="1" fold="1" page="1" pageScale="1" pageWidth="827" pageHeight="1169" math="0" shadow="0">
      <root>
        <mxCell id="qh9V94PyPpOeahFQK5wv-0" />
        <mxCell id="qh9V94PyPpOeahFQK5wv-1" parent="qh9V94PyPpOeahFQK5wv-0" />
        <mxCell id="qh9V94PyPpOeahFQK5wv-2" value="&lt;font style=&quot;font-size: 48px&quot;&gt;build our &quot;f**king tower&quot;&lt;br&gt;&lt;/font&gt;&lt;span style=&quot;white-space: pre&quot;&gt;	&lt;/span&gt;" style="text;html=1;strokeColor=none;fillColor=none;align=center;verticalAlign=middle;whiteSpace=wrap;rounded=0;" vertex="1" parent="qh9V94PyPpOeahFQK5wv-1">
          <mxGeometry x="20" y="50" width="300" height="120" as="geometry" />
        </mxCell>
        <mxCell id="qh9V94PyPpOeahFQK5wv-3" style="edgeStyle=orthogonalEdgeStyle;rounded=0;orthogonalLoop=1;jettySize=auto;html=1;dashed=1;fillColor=#d5e8d4;strokeColor=#82b366;" edge="1" parent="qh9V94PyPpOeahFQK5wv-1" source="qh9V94PyPpOeahFQK5wv-4">
          <mxGeometry relative="1" as="geometry">
            <mxPoint x="810" y="390" as="targetPoint" />
          </mxGeometry>
        </mxCell>
        <mxCell id="qh9V94PyPpOeahFQK5wv-4" value="development" style="ellipse;whiteSpace=wrap;html=1;aspect=fixed;fillColor=#dae8fc;strokeColor=#6c8ebf;" vertex="1" parent="qh9V94PyPpOeahFQK5wv-1">
          <mxGeometry x="430" y="270" width="140" height="140" as="geometry" />
        </mxCell>
        <mxCell id="qh9V94PyPpOeahFQK5wv-5" value="" style="curved=1;endArrow=classic;html=1;exitX=1;exitY=0.5;exitDx=0;exitDy=0;fillColor=#dae8fc;strokeColor=#6c8ebf;entryX=0;entryY=0.5;entryDx=0;entryDy=0;" edge="1" parent="qh9V94PyPpOeahFQK5wv-1" source="qh9V94PyPpOeahFQK5wv-4" target="qh9V94PyPpOeahFQK5wv-7">
          <mxGeometry width="50" height="50" relative="1" as="geometry">
            <mxPoint x="210" y="420" as="sourcePoint" />
            <mxPoint x="380" y="290" as="targetPoint" />
            <Array as="points">
              <mxPoint x="270" y="330" />
              <mxPoint x="300" y="300" />
              <mxPoint x="340" y="290" />
            </Array>
          </mxGeometry>
        </mxCell>
        <mxCell id="qh9V94PyPpOeahFQK5wv-6" style="edgeStyle=orthogonalEdgeStyle;rounded=0;orthogonalLoop=1;jettySize=auto;html=1;exitX=0.5;exitY=0;exitDx=0;exitDy=0;fillColor=#f8cecc;strokeColor=#b85450;" edge="1" parent="qh9V94PyPpOeahFQK5wv-1" source="qh9V94PyPpOeahFQK5wv-7">
          <mxGeometry relative="1" as="geometry">
            <mxPoint x="459.7058823529412" y="160" as="targetPoint" />
          </mxGeometry>
        </mxCell>
        <mxCell id="qh9V94PyPpOeahFQK5wv-7" value="reduce uncertainty about the size of the oil or gas field and its properties" style="ellipse;whiteSpace=wrap;html=1;aspect=fixed;fillColor=#dae8fc;strokeColor=#6c8ebf;" vertex="1" parent="qh9V94PyPpOeahFQK5wv-1">
          <mxGeometry x="590" y="130" width="160" height="160" as="geometry" />
        </mxCell>
        <mxCell id="qh9V94PyPpOeahFQK5wv-8" value="" style="curved=1;endArrow=classic;html=1;exitX=0.5;exitY=1;exitDx=0;exitDy=0;fillColor=#d5e8d4;strokeColor=#82b366;" edge="1" parent="qh9V94PyPpOeahFQK5wv-1" source="qh9V94PyPpOeahFQK5wv-4">
          <mxGeometry width="50" height="50" relative="1" as="geometry">
            <mxPoint x="360" y="390" as="sourcePoint" />
            <mxPoint x="340" y="470" as="targetPoint" />
            <Array as="points">
              <mxPoint x="240" y="500" />
              <mxPoint x="290" y="410" />
            </Array>
          </mxGeometry>
        </mxCell>
        <mxCell id="qh9V94PyPpOeahFQK5wv-9" value="&lt;b&gt;some resource(s)&lt;/b&gt;:&lt;br&gt;&lt;a href=&quot;http://www.reportingoilandgas.org/the-exploration-and-production-life-cycle-of-oil-and-gas/&quot;&gt;http://www.reportingoilandgas.org/the-exploration-and-production-life-cycle-of-oil-and-gas/&lt;/a&gt;" style="text;html=1;strokeColor=none;fillColor=none;align=center;verticalAlign=middle;whiteSpace=wrap;rounded=0;" vertex="1" parent="qh9V94PyPpOeahFQK5wv-1">
          <mxGeometry x="530" y="20" width="280" height="60" as="geometry" />
        </mxCell>
        <mxCell id="qh9V94PyPpOeahFQK5wv-10" value="&lt;ul&gt;&lt;li&gt;drilling&lt;/li&gt;&lt;li&gt;seismic&lt;/li&gt;&lt;/ul&gt;" style="text;html=1;strokeColor=#6c8ebf;fillColor=#dae8fc;align=center;verticalAlign=middle;whiteSpace=wrap;rounded=0;" vertex="1" parent="qh9V94PyPpOeahFQK5wv-1">
          <mxGeometry x="407.5" y="110" width="105" height="50" as="geometry" />
        </mxCell>
        <mxCell id="qh9V94PyPpOeahFQK5wv-11" value="collect tons of damn core and fluid information (yeah, still...)" style="ellipse;whiteSpace=wrap;html=1;aspect=fixed;fillColor=#d5e8d4;strokeColor=#82b366;" vertex="1" parent="qh9V94PyPpOeahFQK5wv-1">
          <mxGeometry x="320" y="450" width="130" height="130" as="geometry" />
        </mxCell>
        <mxCell id="qh9V94PyPpOeahFQK5wv-12" value="" style="endArrow=classic;html=1;exitX=0.5;exitY=1;exitDx=0;exitDy=0;" edge="1" parent="qh9V94PyPpOeahFQK5wv-1" source="qh9V94PyPpOeahFQK5wv-11">
          <mxGeometry width="50" height="50" relative="1" as="geometry">
            <mxPoint x="200" y="480" as="sourcePoint" />
            <mxPoint x="385" y="620" as="targetPoint" />
          </mxGeometry>
        </mxCell>
        <mxCell id="qh9V94PyPpOeahFQK5wv-13" value="&lt;ul&gt;&lt;li&gt;is hydrocarbon exists&lt;/li&gt;&lt;li&gt;how many&lt;/li&gt;&lt;li&gt;geography terrain&lt;/li&gt;&lt;li&gt;safety induction&lt;/li&gt;&lt;li&gt;depth area&lt;br&gt;&lt;/li&gt;&lt;/ul&gt;" style="text;whiteSpace=wrap;html=1;fillColor=#d5e8d4;strokeColor=#82b366;" vertex="1" parent="qh9V94PyPpOeahFQK5wv-1">
          <mxGeometry x="340" y="610" width="180" height="100" as="geometry" />
        </mxCell>
        <mxCell id="qh9V94PyPpOeahFQK5wv-14" value="appraisal finished and success" style="rounded=0;whiteSpace=wrap;html=1;" vertex="1" parent="qh9V94PyPpOeahFQK5wv-1">
          <mxGeometry x="540" y="365" width="110" height="50" as="geometry" />
        </mxCell>
        <mxCell id="qh9V94PyPpOeahFQK5wv-15" value="development&lt;div&gt;process&lt;br&gt;&lt;/div&gt;" style="text;html=1;strokeColor=none;fillColor=none;align=center;verticalAlign=middle;whiteSpace=wrap;rounded=0;portConstraintRotation=0;rotation=45;" vertex="1" parent="qh9V94PyPpOeahFQK5wv-1">
          <mxGeometry x="740" y="380" width="40" height="20" as="geometry" />
        </mxCell>
        <mxCell id="qh9V94PyPpOeahFQK5wv-16" value="&lt;div align=&quot;left&quot;&gt;&lt;font style=&quot;font-size: 36px&quot;&gt;topics related&lt;/font&gt;&lt;/div&gt;&lt;div style=&quot;font-size: 20px&quot; align=&quot;left&quot;&gt;&lt;ul&gt;&lt;li&gt;petrophysics&lt;/li&gt;&lt;li&gt;well-log analysis&lt;/li&gt;&lt;li&gt;reservoir engineering&lt;br&gt;&lt;/li&gt;&lt;/ul&gt;&lt;/div&gt;" style="text;html=1;strokeColor=none;fillColor=none;align=left;verticalAlign=middle;whiteSpace=wrap;rounded=0;" vertex="1" parent="qh9V94PyPpOeahFQK5wv-1">
          <mxGeometry x="10" y="1026" width="240" height="130" as="geometry" />
        </mxCell>
        <mxCell id="qh9V94PyPpOeahFQK5wv-17" value="" style="endArrow=blockThin;dashed=1;html=1;strokeWidth=1;endFill=1;fillColor=#dae8fc;strokeColor=#6c8ebf;rounded=0;" edge="1" parent="qh9V94PyPpOeahFQK5wv-1">
          <mxGeometry width="50" height="50" relative="1" as="geometry">
            <mxPoint x="10" y="390" as="sourcePoint" />
            <mxPoint x="110" y="390" as="targetPoint" />
          </mxGeometry>
        </mxCell>
        <mxCell id="qh9V94PyPpOeahFQK5wv-18" value="" style="curved=1;endArrow=classic;html=1;dashed=1;strokeWidth=1;exitX=0;exitY=1;exitDx=0;exitDy=0;fillColor=#ffe6cc;strokeColor=#d79b00;" edge="1" parent="qh9V94PyPpOeahFQK5wv-1" source="qh9V94PyPpOeahFQK5wv-4">
          <mxGeometry width="50" height="50" relative="1" as="geometry">
            <mxPoint x="300" y="540" as="sourcePoint" />
            <mxPoint x="110" y="580" as="targetPoint" />
            <Array as="points">
              <mxPoint x="70" y="500" />
              <mxPoint x="140" y="510" />
            </Array>
          </mxGeometry>
        </mxCell>
        <mxCell id="qh9V94PyPpOeahFQK5wv-19" value="do more &lt;strike&gt;shits of&lt;/strike&gt; seismic surveys" style="ellipse;whiteSpace=wrap;html=1;aspect=fixed;fillColor=#ffe6cc;strokeColor=#d79b00;" vertex="1" parent="qh9V94PyPpOeahFQK5wv-1">
          <mxGeometry x="40" y="580" width="130" height="130" as="geometry" />
        </mxCell>
        <mxCell id="qh9V94PyPpOeahFQK5wv-20" value="" style="endArrow=classic;html=1;strokeWidth=1;fillColor=#ffe6cc;strokeColor=#d79b00;" edge="1" parent="qh9V94PyPpOeahFQK5wv-1">
          <mxGeometry width="50" height="50" relative="1" as="geometry">
            <mxPoint x="110" y="710" as="sourcePoint" />
            <mxPoint x="110" y="750" as="targetPoint" />
          </mxGeometry>
        </mxCell>
        <mxCell id="qh9V94PyPpOeahFQK5wv-21" value="- how much, how fast of fluid flow" style="text;html=1;strokeColor=#d79b00;fillColor=#ffe6cc;align=left;verticalAlign=middle;whiteSpace=wrap;rounded=0;" vertex="1" parent="qh9V94PyPpOeahFQK5wv-1">
          <mxGeometry x="40" y="760" width="220" height="20" as="geometry" />
        </mxCell>
      </root>
    </mxGraphModel>
  </diagram>
</mxfile>
